<svg width="147" height="42" viewBox="0 0 147 42" fill="none" xmlns="http://www.w3.org/2000/svg">
<path d="M8.512 32.288C7.78667 32.288 7.15733 32.1173 6.624 31.776C6.09067 31.4133 5.664 30.8587 5.344 30.112L0.992 19.584C0.714667 18.9227 0.618667 18.3253 0.704 17.792C0.789333 17.2373 1.04533 16.8 1.472 16.48C1.92 16.1387 2.528 15.968 3.296 15.968C3.95733 15.968 4.50133 16.128 4.928 16.448C5.35467 16.7467 5.73867 17.344 6.08 18.24L9.152 26.304H8.48L11.712 17.632C11.9253 17.056 12.2133 16.64 12.576 16.384C12.96 16.1067 13.44 15.968 14.016 15.968C14.6347 15.968 15.1253 16.1067 15.488 16.384C15.8507 16.6613 16.1387 17.0773 16.352 17.632L19.584 26.304H19.008L22.112 18.048C22.4107 17.2373 22.7947 16.6933 23.264 16.416C23.7333 16.1173 24.2347 15.968 24.768 15.968C25.4933 15.968 26.048 16.1387 26.432 16.48C26.816 16.8213 27.0293 17.2693 27.072 17.824C27.136 18.3787 27.0293 18.976 26.752 19.616L22.432 30.08C22.1333 30.8267 21.7173 31.3813 21.184 31.744C20.6507 32.1067 20.0213 32.288 19.296 32.288C18.5493 32.288 17.9093 32.1067 17.376 31.744C16.864 31.3813 16.448 30.8267 16.128 30.08L12.608 21.28H14.944L11.616 30.016C11.3173 30.784 10.912 31.36 10.4 31.744C9.888 32.1067 9.25867 32.288 8.512 32.288ZM37.615 32.352C35.695 32.352 34.031 32.0213 32.623 31.36C31.2363 30.6773 30.1697 29.7173 29.423 28.48C28.6763 27.2427 28.303 25.7813 28.303 24.096C28.303 22.4747 28.655 21.056 29.359 19.84C30.0843 18.6027 31.0657 17.6427 32.303 16.96C33.5617 16.256 34.991 15.904 36.591 15.904C37.7643 15.904 38.831 16.096 39.791 16.48C40.751 16.8427 41.5723 17.3867 42.255 18.112C42.9377 18.816 43.4497 19.6693 43.791 20.672C44.1537 21.6747 44.335 22.7947 44.335 24.032C44.335 24.4587 44.2177 24.7787 43.983 24.992C43.7483 25.184 43.375 25.28 42.863 25.28H33.071V22.592H40.175L39.663 23.008C39.663 22.2187 39.5563 21.5787 39.343 21.088C39.1297 20.5973 38.8097 20.224 38.383 19.968C37.9777 19.712 37.4657 19.584 36.847 19.584C36.1857 19.584 35.6097 19.744 35.119 20.064C34.6497 20.3627 34.287 20.8107 34.031 21.408C33.775 22.0053 33.647 22.752 33.647 23.648V23.936C33.647 25.4507 33.9777 26.5387 34.639 27.2C35.3217 27.84 36.367 28.16 37.775 28.16C38.2443 28.16 38.7777 28.1067 39.375 28C39.9937 27.872 40.5803 27.7013 41.135 27.488C41.6897 27.2747 42.1697 27.2427 42.575 27.392C42.9803 27.52 43.2897 27.7547 43.503 28.096C43.7377 28.416 43.8657 28.7893 43.887 29.216C43.9083 29.6213 43.8123 30.0267 43.599 30.432C43.3857 30.816 43.0337 31.1147 42.543 31.328C41.7963 31.6693 40.9963 31.9253 40.143 32.096C39.311 32.2667 38.4683 32.352 37.615 32.352ZM55.365 32.352C53.445 32.352 51.781 32.0213 50.373 31.36C48.9863 30.6773 47.9197 29.7173 47.173 28.48C46.4263 27.2427 46.053 25.7813 46.053 24.096C46.053 22.4747 46.405 21.056 47.109 19.84C47.8343 18.6027 48.8157 17.6427 50.053 16.96C51.3117 16.256 52.741 15.904 54.341 15.904C55.5143 15.904 56.581 16.096 57.541 16.48C58.501 16.8427 59.3223 17.3867 60.005 18.112C60.6877 18.816 61.1997 19.6693 61.541 20.672C61.9037 21.6747 62.085 22.7947 62.085 24.032C62.085 24.4587 61.9677 24.7787 61.733 24.992C61.4983 25.184 61.125 25.28 60.613 25.28H50.821V22.592H57.925L57.413 23.008C57.413 22.2187 57.3063 21.5787 57.093 21.088C56.8797 20.5973 56.5597 20.224 56.133 19.968C55.7277 19.712 55.2157 19.584 54.597 19.584C53.9357 19.584 53.3597 19.744 52.869 20.064C52.3997 20.3627 52.037 20.8107 51.781 21.408C51.525 22.0053 51.397 22.752 51.397 23.648V23.936C51.397 25.4507 51.7277 26.5387 52.389 27.2C53.0717 27.84 54.117 28.16 55.525 28.16C55.9943 28.16 56.5277 28.1067 57.125 28C57.7437 27.872 58.3303 27.7013 58.885 27.488C59.4397 27.2747 59.9197 27.2427 60.325 27.392C60.7303 27.52 61.0397 27.7547 61.253 28.096C61.4877 28.416 61.6157 28.7893 61.637 29.216C61.6583 29.6213 61.5623 30.0267 61.349 30.432C61.1357 30.816 60.7837 31.1147 60.293 31.328C59.5463 31.6693 58.7463 31.9253 57.893 32.096C57.061 32.2667 56.2183 32.352 55.365 32.352ZM67.355 32.288C66.459 32.288 65.7657 32.0427 65.275 31.552C64.7843 31.0613 64.539 30.3467 64.539 29.408V12.032C64.539 11.0933 64.7843 10.3787 65.275 9.888C65.7657 9.39733 66.459 9.152 67.355 9.152C68.2723 9.152 68.9763 9.39733 69.467 9.888C69.979 10.3787 70.235 11.0933 70.235 12.032V22.592H70.299L74.203 17.856C74.7363 17.216 75.227 16.7467 75.675 16.448C76.1443 16.128 76.7737 15.968 77.563 15.968C78.3523 15.968 78.9603 16.16 79.387 16.544C79.8137 16.928 80.0377 17.408 80.059 17.984C80.0803 18.56 79.8457 19.136 79.355 19.712L75.131 24.704V22.72L79.867 28.672C80.3363 29.2693 80.5283 29.856 80.443 30.432C80.3577 30.9867 80.0803 31.4347 79.611 31.776C79.163 32.1173 78.587 32.288 77.883 32.288C77.0297 32.288 76.347 32.1387 75.835 31.84C75.323 31.52 74.811 31.0293 74.299 30.368L70.299 25.44H70.235V29.408C70.235 31.328 69.275 32.288 67.355 32.288Z" fill="#002B36"/>
<path d="M86.227 32.192C85.267 32.192 84.499 31.904 83.923 31.328C83.3683 30.752 83.091 29.9947 83.091 29.056C83.091 28.1387 83.3683 27.4027 83.923 26.848C84.499 26.272 85.267 25.984 86.227 25.984C87.2297 25.984 87.9977 26.272 88.531 26.848C89.0857 27.4027 89.363 28.1387 89.363 29.056C89.363 29.9947 89.0857 30.752 88.531 31.328C87.9977 31.904 87.2297 32.192 86.227 32.192ZM99.7883 32.352C98.0389 32.352 96.5136 32.0213 95.2123 31.36C93.9109 30.6987 92.8976 29.7493 92.1723 28.512C91.4469 27.2747 91.0843 25.8133 91.0843 24.128C91.0843 22.848 91.2869 21.7067 91.6923 20.704C92.0976 19.68 92.6843 18.816 93.4523 18.112C94.2203 17.3867 95.1376 16.8427 96.2043 16.48C97.2709 16.096 98.4656 15.904 99.7883 15.904C101.538 15.904 103.063 16.2347 104.364 16.896C105.666 17.5573 106.668 18.5067 107.372 19.744C108.098 20.96 108.46 22.4213 108.46 24.128C108.46 25.3867 108.258 26.528 107.852 27.552C107.447 28.576 106.86 29.4507 106.092 30.176C105.346 30.88 104.428 31.424 103.34 31.808C102.274 32.1707 101.09 32.352 99.7883 32.352ZM99.7883 28.16C100.364 28.16 100.876 28.0213 101.324 27.744C101.772 27.4453 102.114 27.008 102.348 26.432C102.604 25.8347 102.732 25.0667 102.732 24.128C102.732 22.6987 102.455 21.6747 101.9 21.056C101.346 20.416 100.642 20.096 99.7883 20.096C99.2123 20.096 98.7003 20.2347 98.2523 20.512C97.8043 20.7893 97.4523 21.2267 97.1963 21.824C96.9403 22.4 96.8123 23.168 96.8123 24.128C96.8123 25.536 97.0896 26.56 97.6443 27.2C98.1989 27.84 98.9136 28.16 99.7883 28.16ZM113.886 32.288C112.99 32.288 112.297 32.0427 111.806 31.552C111.316 31.0613 111.07 30.3467 111.07 29.408V18.816C111.07 17.8987 111.305 17.1947 111.774 16.704C112.265 16.2133 112.958 15.968 113.854 15.968C114.75 15.968 115.433 16.2133 115.902 16.704C116.372 17.1947 116.606 17.8987 116.606 18.816V20.32L116.254 19.008C116.766 18.0053 117.492 17.2373 118.43 16.704C119.39 16.1707 120.478 15.904 121.694 15.904C122.953 15.904 123.988 16.1493 124.798 16.64C125.609 17.1093 126.217 17.856 126.622 18.88C127.028 19.8827 127.23 21.152 127.23 22.688V29.408C127.23 30.3467 126.985 31.0613 126.494 31.552C126.004 32.0427 125.3 32.288 124.382 32.288C123.465 32.288 122.761 32.0427 122.27 31.552C121.78 31.0613 121.534 30.3467 121.534 29.408V22.912C121.534 21.952 121.364 21.2693 121.022 20.864C120.702 20.4587 120.222 20.256 119.582 20.256C118.729 20.256 118.046 20.5333 117.534 21.088C117.022 21.6213 116.766 22.3467 116.766 23.264V29.408C116.766 31.328 115.806 32.288 113.886 32.288ZM139.053 32.352C137.133 32.352 135.469 32.0213 134.061 31.36C132.674 30.6773 131.607 29.7173 130.861 28.48C130.114 27.2427 129.741 25.7813 129.741 24.096C129.741 22.4747 130.093 21.056 130.797 19.84C131.522 18.6027 132.503 17.6427 133.741 16.96C134.999 16.256 136.429 15.904 138.029 15.904C139.202 15.904 140.269 16.096 141.229 16.48C142.189 16.8427 143.01 17.3867 143.693 18.112C144.375 18.816 144.887 19.6693 145.229 20.672C145.591 21.6747 145.773 22.7947 145.773 24.032C145.773 24.4587 145.655 24.7787 145.421 24.992C145.186 25.184 144.813 25.28 144.301 25.28H134.509V22.592H141.613L141.101 23.008C141.101 22.2187 140.994 21.5787 140.781 21.088C140.567 20.5973 140.247 20.224 139.821 19.968C139.415 19.712 138.903 19.584 138.285 19.584C137.623 19.584 137.047 19.744 136.557 20.064C136.087 20.3627 135.725 20.8107 135.469 21.408C135.213 22.0053 135.085 22.752 135.085 23.648V23.936C135.085 25.4507 135.415 26.5387 136.077 27.2C136.759 27.84 137.805 28.16 139.213 28.16C139.682 28.16 140.215 28.1067 140.813 28C141.431 27.872 142.018 27.7013 142.573 27.488C143.127 27.2747 143.607 27.2427 144.013 27.392C144.418 27.52 144.727 27.7547 144.941 28.096C145.175 28.416 145.303 28.7893 145.325 29.216C145.346 29.6213 145.25 30.0267 145.037 30.432C144.823 30.816 144.471 31.1147 143.981 31.328C143.234 31.6693 142.434 31.9253 141.581 32.096C140.749 32.2667 139.906 32.352 139.053 32.352Z" fill="#FE5A2F"/>
</svg>
